<svg xmlns="http://www.w3.org/2000/svg" xmlns:xlink="http://www.w3.org/1999/xlink" viewBox="0 0 1995.36 949.58">
    <defs>
        <style>.cls-1{fill:#fff;}.cls-2{fill:url(#linear-gradient);}.cls-3{fill:url(#linear-gradient-2);}.cls-4{fill:url(#linear-gradient-3);}</style>
        <linearGradient id="linear-gradient" x1="207.45" y1="76.52" x2="885.15" y2="199.21" gradientUnits="userSpaceOnUse">
            <stop offset="0.01" stop-color="#fff"/>
            <stop offset="1" stop-color="#ccc"/>
        </linearGradient>
        <linearGradient id="linear-gradient-2" x1="-6.19" y1="649.95" x2="610.16" y2="77.42" gradientUnits="userSpaceOnUse">
            <stop offset="0.32" stop-color="#fff"/>
            <stop offset="0.8" stop-color="#ccc"/>
        </linearGradient>
        <linearGradient id="linear-gradient-3" y1="729.05" x2="787.56" y2="729.05" gradientUnits="userSpaceOnUse">
            <stop offset="0" stop-color="#ccc"/>
            <stop offset="0.1" stop-color="#dadada"/>
            <stop offset="0.33" stop-color="#f5f5f5"/>
            <stop offset="0.47" stop-color="#fff"/>
        </linearGradient>
    </defs>
    <title>Logo_Verti_White</title>
    <style>
        .sub-logo{
            transition: all .3s linear;
            opacity: 1
        }
        .sub-logo.fixed{
            opacity: 0
        }
    </style>
    <g id="Layer_2" data-name="Layer 2">
        <g id="Layer_1-2" data-name="Layer 1">
            <g class="sub-logo">
                <path class="cls-1"
                      d="M1151.09,698.58a81.06,81.06,0,0,1-41.2-11.27,88.31,88.31,0,0,1-31-29.79l-2.43-3.9,25.18-15,2.26,4a51.37,51.37,0,0,0,28.25,23.31,56.81,56.81,0,0,0,18.91,3.43c15.31,0,28-5.22,38.7-16s16-23.39,16-38.71-5.22-28-16-38.7-23.39-16-38.7-16a53.86,53.86,0,0,0-22.08,4.52,6.3,6.3,0,0,1-2.58.55,6.49,6.49,0,0,1-5.61-9.6l49.11-89.17h-81V437.14H1219l-52.35,95.06a81.62,81.62,0,0,1,46.08,25.62A84.84,84.84,0,0,1,1235,614.75a81.08,81.08,0,0,1-20.84,55.12,84.68,84.68,0,0,1-58.46,28.59C1154.13,698.54,1152.6,698.58,1151.09,698.58Z"/>
                <path class="cls-1"
                      d="M1211.36,441.64l-51.81,94.07a77.2,77.2,0,0,1,49.84,25.16,79.8,79.8,0,0,1,21.07,53.88,76.34,76.34,0,0,1-19.72,52.14A80.26,80.26,0,0,1,1155.42,694c-1.45.07-2.89.11-4.32.11a76.32,76.32,0,0,1-38.95-10.66,83.49,83.49,0,0,1-29.4-28.29L1100,644.84a55.84,55.84,0,0,0,30.68,25.35,61.16,61.16,0,0,0,20.4,3.68q24.62,0,41.89-17.27t17.26-41.89q0-24.62-17.26-41.89t-41.89-17.27a58.15,58.15,0,0,0-23.91,4.91,1.91,1.91,0,0,1-.75.16,2,2,0,0,1-1.67-2.93l52.78-95.84h-84.14V441.64h117.95m15.23-9H1084.41v38.21h77.91l-45.43,82.5a10.92,10.92,0,0,0,14,15.33,49.41,49.41,0,0,1,20.25-4.13c14.05,0,25.67,4.79,35.52,14.64s14.63,21.47,14.63,35.52-4.78,25.68-14.63,35.52-21.47,14.64-35.52,14.64a52.36,52.36,0,0,1-17.41-3.17,47,47,0,0,1-25.83-21.27l-4.52-8-7.92,4.71-17.28,10.29-7.9,4.7,4.88,7.8a92.81,92.81,0,0,0,32.51,31.31,85.54,85.54,0,0,0,43.47,11.87c1.58,0,3.2,0,4.8-.13a89.16,89.16,0,0,0,61.59-30.1,85.44,85.44,0,0,0,22-58.1,89.37,89.37,0,0,0-23.45-60,86,86,0,0,0-42.55-25.67L1219.24,446l7.35-13.35Z"/>
                <path class="cls-1"
                      d="M1995.12,602.14c-1.11-20.65-14.29-41.75-21.41-49.14s-27.07-23.52-51.3-27.88-49.35-2.92-63.78-9.47c-11.12-5-20.91-13.21-18.78-36.16,2.56-27.57,29.1-27.86,44.84-27.86s31.21.38,31.21.38l12.83-32.16s-55.47-1.49-70.85,1.41-39.06,14.05-48,36.23c-8.2,20.35-5.3,43.11,2.32,60.44,8.2,18.66,28.73,36.5,74.28,38.22,39.22,1.47,53.86,17.42,57.79,22.13,6.72,8,10.56,13.94,10.56,36.06,0,19.83-13.47,41-45.88,42-23.85.68-94.74.86-139.34.89V419.92L1649.36,575.07,1518.49,440.32c-95.51-42.78-153.88,7.46-177.44,36.06-46.7,56.69-33.37,171.8,58.33,206.9,98.83,37.82,164.12-42,164.12-42l-30.33-25.67s-35.45,40.28-84,39.67c-84.9-1.07-132.71-118.65-60.67-172.68,73.7-55.26,129.9,16.2,129.9,16.2l131,135.62,79.25-96.87,2.12,158.23h38.89v-.08H1919.7s35.58,1.53,57.82-28.06C1993.83,645.93,1996.26,623.43,1995.12,602.14Z"/>
            </g>
            <polygon class="cls-1" points="1035.46 613.4 875.93 516.19 657.65 640.26 657.65 380.3 584.78 331.06 584.78 766.31 875.93 598.9 1035.46 693.06 1035.46 613.4"/>
            <path class="cls-2"
                  d="M438.59,160.24c1.3.44,2.57,1,3.85,1.52,2.17.89,4.35,1.57,6.51,2.56-2.16-1-4.34-1.67-6.51-2.56a53.69,53.69,0,0,1,8,4l70.94,44.44a148.35,148.35,0,0,0,78.76,22.63H787.56L447.25,15.22A96.5,96.5,0,0,0,314,44.53L220.3,191C244.81,176.52,344.62,124,438.59,160.24Z"/>
            <path class="cls-3"
                  d="M165.76,508.52l0,0,0-.07a108.94,108.94,0,0,1,6.32-9.87l202.08-316a55,55,0,0,1,64.36-22.3C344.62,124,244.81,176.52,220.3,191L15.22,511.63a96.5,96.5,0,0,0,29.31,133.3L176.2,729.14C112,622,149.47,536.69,165.76,508.52Z"/>
            <path class="cls-4" d="M457.21,758.57h0L182.54,584.65a55.15,55.15,0,0,1-16.78-76.13C149.47,536.69,112,622,176.2,729.14L511.62,943.66a97.61,97.61,0,0,0,10.88,5.92v-75.7A134.48,134.48,0,0,0,457.21,758.57Z"/>
        </g>
    </g>
</svg>